<?xml version="1.0" encoding="UTF-8" standalone="no"?>
<!DOCTYPE svg PUBLIC "-//W3C//DTD SVG 1.1//EN"
 "http://www.w3.org/Graphics/SVG/1.1/DTD/svg11.dtd">
<!-- Generated by graphviz version 14.1.2 (0)
 -->
<!-- Pages: 1 -->
<svg width="1119pt" height="857pt"
 viewBox="0.00 0.00 1119.00 857.00" xmlns="http://www.w3.org/2000/svg" xmlns:xlink="http://www.w3.org/1999/xlink">
<g id="graph0" class="graph" transform="scale(1 1) rotate(0) translate(4 853)">
<polygon fill="white" stroke="none" points="-4,4 -4,-853 1115,-853 1115,4 -4,4"/>
<g id="clust1" class="cluster">
<title>cluster_vizzpy</title>
<path fill="#dbeafe" stroke="#3b82f6" stroke-width="2" d="M131,-662C131,-662 1091,-662 1091,-662 1097,-662 1103,-668 1103,-674 1103,-674 1103,-793 1103,-793 1103,-799 1097,-805 1091,-805 1091,-805 131,-805 131,-805 125,-805 119,-799 119,-793 119,-793 119,-674 119,-674 119,-668 125,-662 131,-662"/>
<text xml:space="preserve" text-anchor="middle" x="611" y="-791.5" font-family="Helvetica,sans-Serif" font-size="10.00" fill="#1e3a8a">vizzpy</text>
</g>
<g id="clust2" class="cluster">
<title>cluster_vizzpy_parser</title>
<path fill="#dcfce7" stroke="#16a34a" stroke-width="2" d="M600.5,-697C600.5,-697 1083,-697 1083,-697 1089,-697 1095,-703 1095,-709 1095,-709 1095,-766 1095,-766 1095,-772 1089,-778 1083,-778 1083,-778 600.5,-778 600.5,-778 594.5,-778 588.5,-772 588.5,-766 588.5,-766 588.5,-709 588.5,-709 588.5,-703 594.5,-697 600.5,-697"/>
<text xml:space="preserve" text-anchor="middle" x="841.75" y="-764.5" font-family="Helvetica,sans-Serif" font-size="10.00" fill="#14532d">vizzpy.parser</text>
</g>
<g id="clust3" class="cluster">
<title>cluster___ext__</title>
<path fill="#f1f5f9" stroke="#64748b" stroke-width="2" d="M415.25,-286C415.25,-286 523.25,-286 523.25,-286 529.25,-286 535.25,-292 535.25,-298 535.25,-298 535.25,-452 535.25,-452 535.25,-458 529.25,-464 523.25,-464 523.25,-464 415.25,-464 415.25,-464 409.25,-464 403.25,-458 403.25,-452 403.25,-452 403.25,-298 403.25,-298 403.25,-292 409.25,-286 415.25,-286"/>
<text xml:space="preserve" text-anchor="middle" x="469.25" y="-450.5" font-family="Helvetica,sans-Serif" font-size="10.00" fill="#1e293b">external libraries</text>
</g>
<g id="clust4" class="cluster">
<title>cluster_fastapi</title>
<path fill="#f8fafc" stroke="#94a3b8" stroke-dasharray="5,2" d="M423.25,-294C423.25,-294 515.25,-294 515.25,-294 521.25,-294 527.25,-300 527.25,-306 527.25,-306 527.25,-425 527.25,-425 527.25,-431 521.25,-437 515.25,-437 515.25,-437 423.25,-437 423.25,-437 417.25,-437 411.25,-431 411.25,-425 411.25,-425 411.25,-306 411.25,-306 411.25,-300 417.25,-294 423.25,-294"/>
<text xml:space="preserve" text-anchor="middle" x="469.25" y="-423.5" font-family="Helvetica,sans-Serif" font-size="10.00" fill="#334155">fastapi</text>
</g>
<!-- vizzpy.cli -->
<g id="node1" class="node">
<title>vizzpy.cli</title>
<g id="a_node1"><a xlink:title="vizzpy.cli">
<path fill="#dbe9f4" stroke="black" d="M173,-706C173,-706 139,-706 139,-706 133,-706 127,-700 127,-694 127,-694 127,-682 127,-682 127,-676 133,-670 139,-670 139,-670 173,-670 173,-670 179,-670 185,-676 185,-682 185,-682 185,-694 185,-694 185,-700 179,-706 173,-706"/>
<text xml:space="preserve" text-anchor="middle" x="156" y="-683.55" font-family="Helvetica,sans-Serif" font-size="11.00">vizzpy.cli</text>
</a>
</g>
</g>
<!-- vizzpy.render -->
<g id="node3" class="node">
<title>vizzpy.render</title>
<g id="a_node3"><a xlink:title="vizzpy.render">
<path fill="#dbe9f4" stroke="black" d="M330,-778C330,-778 274.25,-778 274.25,-778 268.25,-778 262.25,-772 262.25,-766 262.25,-766 262.25,-754 262.25,-754 262.25,-748 268.25,-742 274.25,-742 274.25,-742 330,-742 330,-742 336,-742 342,-748 342,-754 342,-754 342,-766 342,-766 342,-772 336,-778 330,-778"/>
<text xml:space="preserve" text-anchor="middle" x="302.12" y="-755.55" font-family="Helvetica,sans-Serif" font-size="11.00">vizzpy.render</text>
</a>
</g>
</g>
<!-- vizzpy.cli&#45;&gt;vizzpy.render -->
<g id="edge6" class="edge">
<title>vizzpy.cli&#45;&gt;vizzpy.render</title>
<path fill="none" stroke="black" d="M156,-706.17C156,-727.5 156,-760 156,-760 156,-760 250.3,-760 250.3,-760"/>
<polygon fill="black" stroke="black" points="250.3,-763.5 260.3,-760 250.3,-756.5 250.3,-763.5"/>
<text xml:space="preserve" text-anchor="middle" x="223.62" y="-746.2" font-family="Helvetica,sans-Serif" font-size="9.00">2</text>
</g>
<!-- vizzpy.server -->
<g id="node4" class="node">
<title>vizzpy.server</title>
<g id="a_node4"><a xlink:title="vizzpy.server">
<path fill="#dbe9f4" stroke="black" d="M329.25,-706C329.25,-706 275,-706 275,-706 269,-706 263,-700 263,-694 263,-694 263,-682 263,-682 263,-676 269,-670 275,-670 275,-670 329.25,-670 329.25,-670 335.25,-670 341.25,-676 341.25,-682 341.25,-682 341.25,-694 341.25,-694 341.25,-700 335.25,-706 329.25,-706"/>
<text xml:space="preserve" text-anchor="middle" x="302.12" y="-683.55" font-family="Helvetica,sans-Serif" font-size="11.00">vizzpy.server</text>
</a>
</g>
</g>
<!-- vizzpy.cli&#45;&gt;vizzpy.server -->
<g id="edge7" class="edge">
<title>vizzpy.cli&#45;&gt;vizzpy.server</title>
<path fill="none" stroke="black" d="M185.22,-688C185.22,-688 251.2,-688 251.2,-688"/>
<polygon fill="black" stroke="black" points="251.2,-691.5 261.2,-688 251.2,-684.5 251.2,-691.5"/>
</g>
<!-- argparse -->
<g id="node8" class="node">
<title>argparse</title>
<g id="a_node8"><a xlink:title="argparse">
<path fill="#f0f0f0" stroke="#aaaaaa" stroke-dasharray="5,2" d="M319.5,-36C319.5,-36 284.75,-36 284.75,-36 278.75,-36 272.75,-30 272.75,-24 272.75,-24 272.75,-12 272.75,-12 272.75,-6 278.75,0 284.75,0 284.75,0 319.5,0 319.5,0 325.5,0 331.5,-6 331.5,-12 331.5,-12 331.5,-24 331.5,-24 331.5,-30 325.5,-36 319.5,-36"/>
<text xml:space="preserve" text-anchor="middle" x="302.12" y="-13.55" font-family="Helvetica,sans-Serif" font-size="11.00" fill="#888888">argparse</text>
</a>
</g>
</g>
<!-- vizzpy.cli&#45;&gt;argparse -->
<g id="edge2" class="edge">
<title>vizzpy.cli&#45;&gt;argparse</title>
<path fill="none" stroke="black" d="M139,-669.73C139,-562.35 139,-18 139,-18 139,-18 261.07,-18 261.07,-18"/>
<polygon fill="black" stroke="black" points="261.07,-21.5 271.07,-18 261.07,-14.5 261.07,-21.5"/>
</g>
<!-- pathlib -->
<g id="node15" class="node">
<title>pathlib</title>
<g id="a_node15"><a xlink:title="pathlib">
<path fill="#f0f0f0" stroke="#aaaaaa" stroke-dasharray="5,2" d="M484.25,-122C484.25,-122 454.25,-122 454.25,-122 448.25,-122 442.25,-116 442.25,-110 442.25,-110 442.25,-98 442.25,-98 442.25,-92 448.25,-86 454.25,-86 454.25,-86 484.25,-86 484.25,-86 490.25,-86 496.25,-92 496.25,-98 496.25,-98 496.25,-110 496.25,-110 496.25,-116 490.25,-122 484.25,-122"/>
<text xml:space="preserve" text-anchor="middle" x="469.25" y="-99.55" font-family="Helvetica,sans-Serif" font-size="11.00" fill="#888888">pathlib</text>
</a>
</g>
</g>
<!-- vizzpy.cli&#45;&gt;pathlib -->
<g id="edge3" class="edge">
<title>vizzpy.cli&#45;&gt;pathlib</title>
<path fill="none" stroke="black" d="M150,-669.7C150,-570.11 150,-98 150,-98 150,-98 430.24,-98 430.24,-98"/>
<polygon fill="black" stroke="black" points="430.24,-101.5 440.24,-98 430.24,-94.5 430.24,-101.5"/>
<text xml:space="preserve" text-anchor="middle" x="302.12" y="-109.2" font-family="Helvetica,sans-Serif" font-size="9.00">7</text>
</g>
<!-- sys -->
<g id="node16" class="node">
<title>sys</title>
<g id="a_node16"><a xlink:title="sys">
<path fill="#f0f0f0" stroke="#aaaaaa" stroke-dasharray="5,2" d="M317.12,-634C317.12,-634 287.12,-634 287.12,-634 281.12,-634 275.12,-628 275.12,-622 275.12,-622 275.12,-610 275.12,-610 275.12,-604 281.12,-598 287.12,-598 287.12,-598 317.12,-598 317.12,-598 323.12,-598 329.12,-604 329.12,-610 329.12,-610 329.12,-622 329.12,-622 329.12,-628 323.12,-634 317.12,-634"/>
<text xml:space="preserve" text-anchor="middle" x="302.12" y="-611.55" font-family="Helvetica,sans-Serif" font-size="11.00" fill="#888888">sys</text>
</a>
</g>
</g>
<!-- vizzpy.cli&#45;&gt;sys -->
<g id="edge4" class="edge">
<title>vizzpy.cli&#45;&gt;sys</title>
<path fill="none" stroke="black" d="M173,-669.83C173,-648.5 173,-616 173,-616 173,-616 263.23,-616 263.23,-616"/>
<polygon fill="black" stroke="black" points="263.23,-619.5 273.23,-616 263.23,-612.5 263.23,-619.5"/>
<text xml:space="preserve" text-anchor="middle" x="223.62" y="-617.2" font-family="Helvetica,sans-Serif" font-size="9.00">4</text>
</g>
<!-- uvicorn -->
<g id="node19" class="node">
<title>uvicorn</title>
<g id="a_node19"><a xlink:title="uvicorn">
<path fill="#f0f0f0" stroke="#aaaaaa" stroke-dasharray="5,2" d="M317.12,-562C317.12,-562 287.12,-562 287.12,-562 281.12,-562 275.12,-556 275.12,-550 275.12,-550 275.12,-538 275.12,-538 275.12,-532 281.12,-526 287.12,-526 287.12,-526 317.12,-526 317.12,-526 323.12,-526 329.12,-532 329.12,-538 329.12,-538 329.12,-550 329.12,-550 329.12,-556 323.12,-562 317.12,-562"/>
<text xml:space="preserve" text-anchor="middle" x="302.12" y="-539.55" font-family="Helvetica,sans-Serif" font-size="11.00" fill="#888888">uvicorn</text>
</a>
</g>
</g>
<!-- vizzpy.cli&#45;&gt;uvicorn -->
<g id="edge5" class="edge">
<title>vizzpy.cli&#45;&gt;uvicorn</title>
<path fill="none" stroke="black" d="M162,-669.76C162,-631.01 162,-544 162,-544 162,-544 263.26,-544 263.26,-544"/>
<polygon fill="black" stroke="black" points="263.26,-547.5 273.26,-544 263.26,-540.5 263.26,-547.5"/>
</g>
<!-- vizzpy.graph -->
<g id="node2" class="node">
<title>vizzpy.graph</title>
<g id="a_node2"><a xlink:title="vizzpy.graph">
<path fill="#dbe9f4" stroke="black" d="M495.25,-733C495.25,-733 443.25,-733 443.25,-733 437.25,-733 431.25,-727 431.25,-721 431.25,-721 431.25,-709 431.25,-709 431.25,-703 437.25,-697 443.25,-697 443.25,-697 495.25,-697 495.25,-697 501.25,-697 507.25,-703 507.25,-709 507.25,-709 507.25,-721 507.25,-721 507.25,-727 501.25,-733 495.25,-733"/>
<text xml:space="preserve" text-anchor="middle" x="469.25" y="-710.55" font-family="Helvetica,sans-Serif" font-size="11.00">vizzpy.graph</text>
</a>
</g>
</g>
<!-- vizzpy.parser.project -->
<g id="node5" class="node">
<title>vizzpy.parser.project</title>
<g id="a_node5"><a xlink:title="vizzpy.parser.project">
<path fill="#dbe9f4" stroke="black" d="M698,-741C698,-741 608.5,-741 608.5,-741 602.5,-741 596.5,-735 596.5,-729 596.5,-729 596.5,-717 596.5,-717 596.5,-711 602.5,-705 608.5,-705 608.5,-705 698,-705 698,-705 704,-705 710,-711 710,-717 710,-717 710,-729 710,-729 710,-735 704,-741 698,-741"/>
<text xml:space="preserve" text-anchor="middle" x="653.25" y="-718.55" font-family="Helvetica,sans-Serif" font-size="11.00">vizzpy.parser.project</text>
</a>
</g>
</g>
<!-- vizzpy.graph&#45;&gt;vizzpy.parser.project -->
<g id="edge9" class="edge">
<title>vizzpy.graph&#45;&gt;vizzpy.parser.project</title>
<path fill="none" stroke="black" d="M507.37,-719C507.37,-719 584.79,-719 584.79,-719"/>
<polygon fill="black" stroke="black" points="584.79,-722.5 594.79,-719 584.79,-715.5 584.79,-722.5"/>
</g>
<!-- collections -->
<g id="node10" class="node">
<title>collections</title>
<g id="a_node10"><a xlink:title="collections">
<path fill="#f0f0f0" stroke="#aaaaaa" stroke-dasharray="5,2" d="M674,-654C674,-654 632.5,-654 632.5,-654 626.5,-654 620.5,-648 620.5,-642 620.5,-642 620.5,-630 620.5,-630 620.5,-624 626.5,-618 632.5,-618 632.5,-618 674,-618 674,-618 680,-618 686,-624 686,-630 686,-630 686,-642 686,-642 686,-648 680,-654 674,-654"/>
<text xml:space="preserve" text-anchor="middle" x="653.25" y="-631.55" font-family="Helvetica,sans-Serif" font-size="11.00" fill="#888888">collections</text>
</a>
</g>
</g>
<!-- vizzpy.graph&#45;&gt;collections -->
<g id="edge8" class="edge">
<title>vizzpy.graph&#45;&gt;collections</title>
<path fill="none" stroke="black" d="M502,-696.68C502,-673.34 502,-636 502,-636 502,-636 608.54,-636 608.54,-636"/>
<polygon fill="black" stroke="black" points="608.54,-639.5 618.54,-636 608.54,-632.5 608.54,-639.5"/>
<text xml:space="preserve" text-anchor="middle" x="557.88" y="-637.2" font-family="Helvetica,sans-Serif" font-size="9.00">2</text>
</g>
<!-- vizzpy.render&#45;&gt;vizzpy.graph -->
<g id="edge16" class="edge">
<title>vizzpy.render&#45;&gt;vizzpy.graph</title>
<path fill="none" stroke="black" d="M342.23,-748C381.98,-748 437,-748 437,-748 437,-748 437,-744.94 437,-744.94"/>
<polygon fill="black" stroke="black" points="440.5,-744.94 437,-734.94 433.5,-744.94 440.5,-744.94"/>
<text xml:space="preserve" text-anchor="middle" x="380.62" y="-761.2" font-family="Helvetica,sans-Serif" font-size="9.00">4</text>
</g>
<!-- graphviz -->
<g id="node12" class="node">
<title>graphviz</title>
<g id="a_node12"><a xlink:title="graphviz">
<path fill="#f0f0f0" stroke="#aaaaaa" stroke-dasharray="5,2" d="M485.5,-654C485.5,-654 453,-654 453,-654 447,-654 441,-648 441,-642 441,-642 441,-630 441,-630 441,-624 447,-618 453,-618 453,-618 485.5,-618 485.5,-618 491.5,-618 497.5,-624 497.5,-630 497.5,-630 497.5,-642 497.5,-642 497.5,-648 491.5,-654 485.5,-654"/>
<text xml:space="preserve" text-anchor="middle" x="469.25" y="-631.55" font-family="Helvetica,sans-Serif" font-size="11.00" fill="#888888">graphviz</text>
</a>
</g>
</g>
<!-- vizzpy.render&#45;&gt;graphviz -->
<g id="edge15" class="edge">
<title>vizzpy.render&#45;&gt;graphviz</title>
<path fill="none" stroke="black" d="M342.25,-745C366.59,-745 393,-745 393,-745 393,-745 393,-644 393,-644 393,-644 429.34,-644 429.34,-644"/>
<polygon fill="black" stroke="black" points="429.34,-647.5 439.34,-644 429.34,-640.5 429.34,-647.5"/>
</g>
<!-- vizzpy.server&#45;&gt;vizzpy.graph -->
<g id="edge24" class="edge">
<title>vizzpy.server&#45;&gt;vizzpy.graph</title>
<path fill="none" stroke="black" d="M341.73,-700C341.73,-700 419.28,-700 419.28,-700"/>
<polygon fill="black" stroke="black" points="419.28,-703.5 429.28,-700 419.28,-696.5 419.28,-703.5"/>
<text xml:space="preserve" text-anchor="middle" x="380.62" y="-709.2" font-family="Helvetica,sans-Serif" font-size="9.00">2</text>
</g>
<!-- fastapi -->
<g id="node11" class="node">
<title>fastapi</title>
<g id="a_node11"><a xlink:title="fastapi">
<path fill="#f0f0f0" stroke="#aaaaaa" stroke-dasharray="5,2" d="M484.25,-508C484.25,-508 454.25,-508 454.25,-508 448.25,-508 442.25,-502 442.25,-496 442.25,-496 442.25,-484 442.25,-484 442.25,-478 448.25,-472 454.25,-472 454.25,-472 484.25,-472 484.25,-472 490.25,-472 496.25,-478 496.25,-484 496.25,-484 496.25,-496 496.25,-496 496.25,-502 490.25,-508 484.25,-508"/>
<text xml:space="preserve" text-anchor="middle" x="469.25" y="-485.55" font-family="Helvetica,sans-Serif" font-size="11.00" fill="#888888">fastapi</text>
</a>
</g>
</g>
<!-- vizzpy.server&#45;&gt;fastapi -->
<g id="edge17" class="edge">
<title>vizzpy.server&#45;&gt;fastapi</title>
<path fill="none" stroke="black" d="M339,-669.73C339,-620.71 339,-490 339,-490 339,-490 430.43,-490 430.43,-490"/>
<polygon fill="black" stroke="black" points="430.43,-493.5 440.43,-490 430.43,-486.5 430.43,-493.5"/>
<text xml:space="preserve" text-anchor="middle" x="380.62" y="-491.2" font-family="Helvetica,sans-Serif" font-size="9.00">6</text>
</g>
<!-- logging -->
<g id="node13" class="node">
<title>logging</title>
<g id="a_node13"><a xlink:title="logging">
<path fill="#f0f0f0" stroke="#aaaaaa" stroke-dasharray="5,2" d="M858.62,-587C858.62,-587 828.62,-587 828.62,-587 822.62,-587 816.62,-581 816.62,-575 816.62,-575 816.62,-563 816.62,-563 816.62,-557 822.62,-551 828.62,-551 828.62,-551 858.62,-551 858.62,-551 864.62,-551 870.62,-557 870.62,-563 870.62,-563 870.62,-575 870.62,-575 870.62,-581 864.62,-587 858.62,-587"/>
<text xml:space="preserve" text-anchor="middle" x="843.62" y="-564.55" font-family="Helvetica,sans-Serif" font-size="11.00" fill="#888888">logging</text>
</a>
</g>
</g>
<!-- vizzpy.server&#45;&gt;logging -->
<g id="edge20" class="edge">
<title>vizzpy.server&#45;&gt;logging</title>
<path fill="none" stroke="black" d="M341.53,-688C466.23,-688 844,-688 844,-688 844,-688 844,-598.85 844,-598.85"/>
<polygon fill="black" stroke="black" points="847.5,-598.85 844,-588.85 840.5,-598.85 847.5,-598.85"/>
</g>
<!-- vizzpy.server&#45;&gt;pathlib -->
<g id="edge21" class="edge">
<title>vizzpy.server&#45;&gt;pathlib</title>
<path fill="none" stroke="black" d="M268,-669.75C268,-571.5 268,-110 268,-110 268,-110 430.59,-110 430.59,-110"/>
<polygon fill="black" stroke="black" points="430.6,-113.5 440.59,-110 430.59,-106.5 430.6,-113.5"/>
<text xml:space="preserve" text-anchor="middle" x="380.62" y="-169.2" font-family="Helvetica,sans-Serif" font-size="9.00">2</text>
</g>
<!-- tarfile -->
<g id="node17" class="node">
<title>tarfile</title>
<g id="a_node17"><a xlink:title="tarfile">
<path fill="#f0f0f0" stroke="#aaaaaa" stroke-dasharray="5,2" d="M484.25,-266C484.25,-266 454.25,-266 454.25,-266 448.25,-266 442.25,-260 442.25,-254 442.25,-254 442.25,-242 442.25,-242 442.25,-236 448.25,-230 454.25,-230 454.25,-230 484.25,-230 484.25,-230 490.25,-230 496.25,-236 496.25,-242 496.25,-242 496.25,-254 496.25,-254 496.25,-260 490.25,-266 484.25,-266"/>
<text xml:space="preserve" text-anchor="middle" x="469.25" y="-243.55" font-family="Helvetica,sans-Serif" font-size="11.00" fill="#888888">tarfile</text>
</a>
</g>
</g>
<!-- vizzpy.server&#45;&gt;tarfile -->
<g id="edge22" class="edge">
<title>vizzpy.server&#45;&gt;tarfile</title>
<path fill="none" stroke="black" d="M335,-669.65C335,-586.38 335,-248 335,-248 335,-248 430.25,-248 430.25,-248"/>
<polygon fill="black" stroke="black" points="430.25,-251.5 440.25,-248 430.24,-244.5 430.25,-251.5"/>
</g>
<!-- tempfile -->
<g id="node18" class="node">
<title>tempfile</title>
<g id="a_node18"><a xlink:title="tempfile">
<path fill="#f0f0f0" stroke="#aaaaaa" stroke-dasharray="5,2" d="M484.25,-194C484.25,-194 454.25,-194 454.25,-194 448.25,-194 442.25,-188 442.25,-182 442.25,-182 442.25,-170 442.25,-170 442.25,-164 448.25,-158 454.25,-158 454.25,-158 484.25,-158 484.25,-158 490.25,-158 496.25,-164 496.25,-170 496.25,-170 496.25,-182 496.25,-182 496.25,-188 490.25,-194 484.25,-194"/>
<text xml:space="preserve" text-anchor="middle" x="469.25" y="-171.55" font-family="Helvetica,sans-Serif" font-size="11.00" fill="#888888">tempfile</text>
</a>
</g>
</g>
<!-- vizzpy.server&#45;&gt;tempfile -->
<g id="edge23" class="edge">
<title>vizzpy.server&#45;&gt;tempfile</title>
<path fill="none" stroke="black" d="M333,-669.78C333,-578.57 333,-176 333,-176 333,-176 430.49,-176 430.49,-176"/>
<polygon fill="black" stroke="black" points="430.49,-179.5 440.49,-176 430.49,-172.5 430.49,-179.5"/>
</g>
<!-- zipfile -->
<g id="node20" class="node">
<title>zipfile</title>
<g id="a_node20"><a xlink:title="zipfile">
<path fill="#f0f0f0" stroke="#aaaaaa" stroke-dasharray="5,2" d="M484.25,-849C484.25,-849 454.25,-849 454.25,-849 448.25,-849 442.25,-843 442.25,-837 442.25,-837 442.25,-825 442.25,-825 442.25,-819 448.25,-813 454.25,-813 454.25,-813 484.25,-813 484.25,-813 490.25,-813 496.25,-819 496.25,-825 496.25,-825 496.25,-837 496.25,-837 496.25,-843 490.25,-849 484.25,-849"/>
<text xml:space="preserve" text-anchor="middle" x="469.25" y="-826.55" font-family="Helvetica,sans-Serif" font-size="11.00" fill="#888888">zipfile</text>
</a>
</g>
</g>
<!-- vizzpy.server&#45;&gt;zipfile -->
<g id="edge25" class="edge">
<title>vizzpy.server&#45;&gt;zipfile</title>
<path fill="none" stroke="black" d="M341.59,-703C355.62,-703 368,-703 368,-703 368,-703 368,-831 368,-831 368,-831 430.34,-831 430.34,-831"/>
<polygon fill="black" stroke="black" points="430.34,-834.5 440.34,-831 430.34,-827.5 430.34,-834.5"/>
</g>
<!-- fastapi.responses -->
<g id="node21" class="node">
<title>fastapi.responses</title>
<g id="a_node21"><a xlink:title="fastapi.responses">
<path fill="#f0f0f0" stroke="#aaaaaa" stroke-dasharray="5,2" d="M507.25,-410C507.25,-410 431.25,-410 431.25,-410 425.25,-410 419.25,-404 419.25,-398 419.25,-398 419.25,-386 419.25,-386 419.25,-380 425.25,-374 431.25,-374 431.25,-374 507.25,-374 507.25,-374 513.25,-374 519.25,-380 519.25,-386 519.25,-386 519.25,-398 519.25,-398 519.25,-404 513.25,-410 507.25,-410"/>
<text xml:space="preserve" text-anchor="middle" x="469.25" y="-387.55" font-family="Helvetica,sans-Serif" font-size="11.00" fill="#888888">fastapi.responses</text>
</a>
</g>
</g>
<!-- vizzpy.server&#45;&gt;fastapi.responses -->
<g id="edge18" class="edge">
<title>vizzpy.server&#45;&gt;fastapi.responses</title>
<path fill="none" stroke="black" d="M341.68,-679C377.6,-679 425,-679 425,-679 425,-679 425,-421.9 425,-421.9"/>
<polygon fill="black" stroke="black" points="428.5,-421.9 425,-411.9 421.5,-421.9 428.5,-421.9"/>
<text xml:space="preserve" text-anchor="middle" x="380.62" y="-425.2" font-family="Helvetica,sans-Serif" font-size="9.00">3</text>
</g>
<!-- fastapi.staticfiles -->
<g id="node22" class="node">
<title>fastapi.staticfiles</title>
<g id="a_node22"><a xlink:title="fastapi.staticfiles">
<path fill="#f0f0f0" stroke="#aaaaaa" stroke-dasharray="5,2" d="M504.25,-338C504.25,-338 434.25,-338 434.25,-338 428.25,-338 422.25,-332 422.25,-326 422.25,-326 422.25,-314 422.25,-314 422.25,-308 428.25,-302 434.25,-302 434.25,-302 504.25,-302 504.25,-302 510.25,-302 516.25,-308 516.25,-314 516.25,-314 516.25,-326 516.25,-326 516.25,-332 510.25,-338 504.25,-338"/>
<text xml:space="preserve" text-anchor="middle" x="469.25" y="-315.55" font-family="Helvetica,sans-Serif" font-size="11.00" fill="#888888">fastapi.staticfiles</text>
</a>
</g>
</g>
<!-- vizzpy.server&#45;&gt;fastapi.staticfiles -->
<g id="edge19" class="edge">
<title>vizzpy.server&#45;&gt;fastapi.staticfiles</title>
<path fill="none" stroke="black" d="M337,-669.75C337,-595.5 337,-320 337,-320 337,-320 410.36,-320 410.36,-320"/>
<polygon fill="black" stroke="black" points="410.36,-323.5 420.36,-320 410.36,-316.5 410.36,-323.5"/>
</g>
<!-- vizzpy.parser.walker -->
<g id="node7" class="node">
<title>vizzpy.parser.walker</title>
<g id="a_node7"><a xlink:title="vizzpy.parser.walker">
<path fill="#dbe9f4" stroke="black" d="M888,-751C888,-751 799.25,-751 799.25,-751 793.25,-751 787.25,-745 787.25,-739 787.25,-739 787.25,-727 787.25,-727 787.25,-721 793.25,-715 799.25,-715 799.25,-715 888,-715 888,-715 894,-715 900,-721 900,-727 900,-727 900,-739 900,-739 900,-745 894,-751 888,-751"/>
<text xml:space="preserve" text-anchor="middle" x="843.62" y="-728.55" font-family="Helvetica,sans-Serif" font-size="11.00">vizzpy.parser.walker</text>
</a>
</g>
</g>
<!-- vizzpy.parser.project&#45;&gt;vizzpy.parser.walker -->
<g id="edge12" class="edge">
<title>vizzpy.parser.project&#45;&gt;vizzpy.parser.walker</title>
<path fill="none" stroke="black" d="M710.37,-728C710.37,-728 775.36,-728 775.36,-728"/>
<polygon fill="black" stroke="black" points="775.36,-731.5 785.36,-728 775.36,-724.5 775.36,-731.5"/>
<text xml:space="preserve" text-anchor="middle" x="748.62" y="-742.2" font-family="Helvetica,sans-Serif" font-size="9.00">3</text>
</g>
<!-- ast -->
<g id="node9" class="node">
<title>ast</title>
<g id="a_node9"><a xlink:title="ast">
<path fill="#f0f0f0" stroke="#aaaaaa" stroke-dasharray="5,2" d="M1047.12,-651C1047.12,-651 1017.12,-651 1017.12,-651 1011.12,-651 1005.12,-645 1005.12,-639 1005.12,-639 1005.12,-627 1005.12,-627 1005.12,-621 1011.12,-615 1017.12,-615 1017.12,-615 1047.12,-615 1047.12,-615 1053.12,-615 1059.12,-621 1059.12,-627 1059.12,-627 1059.12,-639 1059.12,-639 1059.12,-645 1053.12,-651 1047.12,-651"/>
<text xml:space="preserve" text-anchor="middle" x="1032.12" y="-628.55" font-family="Helvetica,sans-Serif" font-size="11.00" fill="#888888">ast</text>
</a>
</g>
</g>
<!-- vizzpy.parser.project&#45;&gt;ast -->
<g id="edge10" class="edge">
<title>vizzpy.parser.project&#45;&gt;ast</title>
<path fill="none" stroke="black" d="M702,-704.88C702,-677.56 702,-629 702,-629 702,-629 993.32,-629 993.32,-629"/>
<polygon fill="black" stroke="black" points="993.32,-632.5 1003.32,-629 993.32,-625.5 993.32,-632.5"/>
</g>
<!-- vizzpy.parser.project&#45;&gt;logging -->
<g id="edge11" class="edge">
<title>vizzpy.parser.project&#45;&gt;logging</title>
<path fill="none" stroke="black" d="M694,-704.79C694,-665.14 694,-574.5 694,-574.5 694,-574.5 804.67,-574.5 804.67,-574.5"/>
<polygon fill="black" stroke="black" points="804.67,-578 814.67,-574.5 804.67,-571 804.67,-578"/>
</g>
<!-- vizzpy.parser.scope -->
<g id="node6" class="node">
<title>vizzpy.parser.scope</title>
<g id="a_node6"><a xlink:title="vizzpy.parser.scope">
<path fill="#dbe9f4" stroke="black" d="M1075,-751C1075,-751 989.25,-751 989.25,-751 983.25,-751 977.25,-745 977.25,-739 977.25,-739 977.25,-727 977.25,-727 977.25,-721 983.25,-715 989.25,-715 989.25,-715 1075,-715 1075,-715 1081,-715 1087,-721 1087,-727 1087,-727 1087,-739 1087,-739 1087,-745 1081,-751 1075,-751"/>
<text xml:space="preserve" text-anchor="middle" x="1032.12" y="-728.55" font-family="Helvetica,sans-Serif" font-size="11.00">vizzpy.parser.scope</text>
</a>
</g>
</g>
<!-- vizzpy.parser.walker&#45;&gt;vizzpy.parser.scope -->
<g id="edge14" class="edge">
<title>vizzpy.parser.walker&#45;&gt;vizzpy.parser.scope</title>
<path fill="none" stroke="black" d="M900.44,-733C900.44,-733 965.54,-733 965.54,-733"/>
<polygon fill="black" stroke="black" points="965.54,-736.5 975.54,-733 965.54,-729.5 965.54,-736.5"/>
<text xml:space="preserve" text-anchor="middle" x="938.62" y="-742.2" font-family="Helvetica,sans-Serif" font-size="9.00">3</text>
</g>
<!-- vizzpy.parser.walker&#45;&gt;ast -->
<g id="edge13" class="edge">
<title>vizzpy.parser.walker&#45;&gt;ast</title>
<path fill="none" stroke="black" d="M885,-714.63C885,-687.52 885,-640 885,-640 885,-640 993.28,-640 993.28,-640"/>
<polygon fill="black" stroke="black" points="993.28,-643.5 1003.28,-640 993.28,-636.5 993.28,-643.5"/>
<text xml:space="preserve" text-anchor="middle" x="938.62" y="-691.2" font-family="Helvetica,sans-Serif" font-size="9.00">2</text>
</g>
<!-- main -->
<g id="node14" class="node">
<title>main</title>
<g id="a_node14"><a xlink:title="main">
<path fill="#dbe9f4" stroke="black" d="M42,-706C42,-706 12,-706 12,-706 6,-706 0,-700 0,-694 0,-694 0,-682 0,-682 0,-676 6,-670 12,-670 12,-670 42,-670 42,-670 48,-670 54,-676 54,-682 54,-682 54,-694 54,-694 54,-700 48,-706 42,-706"/>
<text xml:space="preserve" text-anchor="middle" x="27" y="-683.55" font-family="Helvetica,sans-Serif" font-size="11.00">main</text>
</a>
</g>
</g>
<!-- main&#45;&gt;vizzpy.cli -->
<g id="edge1" class="edge">
<title>main&#45;&gt;vizzpy.cli</title>
<path fill="none" stroke="black" d="M54.36,-688C54.36,-688 115.38,-688 115.38,-688"/>
<polygon fill="black" stroke="black" points="115.38,-691.5 125.38,-688 115.38,-684.5 115.38,-691.5"/>
</g>
</g>
</svg>
