<?xml version="1.0" encoding="UTF-8" standalone="no"?>
<!DOCTYPE svg PUBLIC "-//W3C//DTD SVG 1.1//EN"
 "http://www.w3.org/Graphics/SVG/1.1/DTD/svg11.dtd">
<!-- Generated by graphviz version 14.1.2 (0)
 -->
<!-- Pages: 1 -->
<svg width="1119pt" height="1027pt"
 viewBox="0.00 0.00 1119.00 1027.00" xmlns="http://www.w3.org/2000/svg" xmlns:xlink="http://www.w3.org/1999/xlink">
<g id="graph0" class="graph" transform="scale(1 1) rotate(0) translate(4 1023)">
<polygon fill="white" stroke="none" points="-4,4 -4,-1023 1115,-1023 1115,4 -4,4"/>
<g id="clust1" class="cluster">
<title>cluster_vizzpy</title>
<path fill="#dbeafe" stroke="#3b82f6" stroke-width="2" d="M131,-478C131,-478 1091,-478 1091,-478 1097,-478 1103,-484 1103,-490 1103,-490 1103,-647 1103,-647 1103,-653 1097,-659 1091,-659 1091,-659 131,-659 131,-659 125,-659 119,-653 119,-647 119,-647 119,-490 119,-490 119,-484 125,-478 131,-478"/>
<text xml:space="preserve" text-anchor="middle" x="611" y="-645.5" font-family="Helvetica,sans-Serif" font-size="10.00" fill="#1e3a8a">vizzpy</text>
</g>
<g id="clust2" class="cluster">
<title>cluster_vizzpy_parser</title>
<path fill="#dcfce7" stroke="#16a34a" stroke-width="2" d="M600.5,-543C600.5,-543 1083,-543 1083,-543 1089,-543 1095,-549 1095,-555 1095,-555 1095,-612 1095,-612 1095,-618 1089,-624 1083,-624 1083,-624 600.5,-624 600.5,-624 594.5,-624 588.5,-618 588.5,-612 588.5,-612 588.5,-555 588.5,-555 588.5,-549 594.5,-543 600.5,-543"/>
<text xml:space="preserve" text-anchor="middle" x="841.75" y="-610.5" font-family="Helvetica,sans-Serif" font-size="10.00" fill="#14532d">vizzpy.parser</text>
</g>
<g id="clust3" class="cluster">
<title>cluster___ext__</title>
<path fill="#f1f5f9" stroke="#64748b" stroke-width="2" d="M415.25,-869C415.25,-869 523.25,-869 523.25,-869 529.25,-869 535.25,-875 535.25,-881 535.25,-881 535.25,-963 535.25,-963 535.25,-969 529.25,-975 523.25,-975 523.25,-975 415.25,-975 415.25,-975 409.25,-975 403.25,-969 403.25,-963 403.25,-963 403.25,-881 403.25,-881 403.25,-875 409.25,-869 415.25,-869"/>
<text xml:space="preserve" text-anchor="middle" x="469.25" y="-961.5" font-family="Helvetica,sans-Serif" font-size="10.00" fill="#1e293b">external libraries</text>
</g>
<g id="clust4" class="cluster">
<title>cluster_fastapi</title>
<path fill="#f8fafc" stroke="#94a3b8" stroke-dasharray="5,2" d="M423.25,-877C423.25,-877 515.25,-877 515.25,-877 521.25,-877 527.25,-883 527.25,-889 527.25,-889 527.25,-936 527.25,-936 527.25,-942 521.25,-948 515.25,-948 515.25,-948 423.25,-948 423.25,-948 417.25,-948 411.25,-942 411.25,-936 411.25,-936 411.25,-889 411.25,-889 411.25,-883 417.25,-877 423.25,-877"/>
<text xml:space="preserve" text-anchor="middle" x="469.25" y="-934.5" font-family="Helvetica,sans-Serif" font-size="10.00" fill="#334155">fastapi</text>
</g>
<!-- vizzpy.cli -->
<g id="node1" class="node">
<title>vizzpy.cli</title>
<g id="a_node1"><a xlink:title="vizzpy.cli">
<path fill="#dbe9f4" stroke="black" d="M173,-522C173,-522 139,-522 139,-522 133,-522 127,-516 127,-510 127,-510 127,-498 127,-498 127,-492 133,-486 139,-486 139,-486 173,-486 173,-486 179,-486 185,-492 185,-498 185,-498 185,-510 185,-510 185,-516 179,-522 173,-522"/>
<text xml:space="preserve" text-anchor="middle" x="156" y="-499.55" font-family="Helvetica,sans-Serif" font-size="11.00">vizzpy.cli</text>
</a>
</g>
</g>
<!-- vizzpy.render -->
<g id="node3" class="node">
<title>vizzpy.render</title>
<g id="a_node3"><a xlink:title="vizzpy.render">
<path fill="#dbe9f4" stroke="black" d="M330,-632C330,-632 274.25,-632 274.25,-632 268.25,-632 262.25,-626 262.25,-620 262.25,-620 262.25,-608 262.25,-608 262.25,-602 268.25,-596 274.25,-596 274.25,-596 330,-596 330,-596 336,-596 342,-602 342,-608 342,-608 342,-620 342,-620 342,-626 336,-632 330,-632"/>
<text xml:space="preserve" text-anchor="middle" x="302.12" y="-609.55" font-family="Helvetica,sans-Serif" font-size="11.00">vizzpy.render</text>
</a>
</g>
</g>
<!-- vizzpy.cli&#45;&gt;vizzpy.render -->
<g id="edge8" class="edge">
<title>vizzpy.cli&#45;&gt;vizzpy.render</title>
<path fill="none" stroke="black" d="M173.32,-522.34C185.66,-535.62 203.43,-553.53 221,-567 231.8,-575.28 244.18,-583.21 255.94,-590.11"/>
<polygon fill="black" stroke="black" points="253.88,-592.97 264.3,-594.91 257.36,-586.9 253.88,-592.97"/>
<text xml:space="preserve" text-anchor="middle" x="223.62" y="-571.2" font-family="Helvetica,sans-Serif" font-size="9.00">2</text>
</g>
<!-- vizzpy.server -->
<g id="node4" class="node">
<title>vizzpy.server</title>
<g id="a_node4"><a xlink:title="vizzpy.server">
<path fill="#dbe9f4" stroke="black" d="M329.25,-522C329.25,-522 275,-522 275,-522 269,-522 263,-516 263,-510 263,-510 263,-498 263,-498 263,-492 269,-486 275,-486 275,-486 329.25,-486 329.25,-486 335.25,-486 341.25,-492 341.25,-498 341.25,-498 341.25,-510 341.25,-510 341.25,-516 335.25,-522 329.25,-522"/>
<text xml:space="preserve" text-anchor="middle" x="302.12" y="-499.55" font-family="Helvetica,sans-Serif" font-size="11.00">vizzpy.server</text>
</a>
</g>
</g>
<!-- vizzpy.cli&#45;&gt;vizzpy.server -->
<g id="edge9" class="edge">
<title>vizzpy.cli&#45;&gt;vizzpy.server</title>
<path fill="none" stroke="black" d="M185.47,-504C204.18,-504 229.16,-504 251.12,-504"/>
<polygon fill="black" stroke="black" points="251.1,-507.5 261.1,-504 251.1,-500.5 251.1,-507.5"/>
</g>
<!-- vizzpy.parser.project -->
<g id="node5" class="node">
<title>vizzpy.parser.project</title>
<g id="a_node5"><a xlink:title="vizzpy.parser.project">
<path fill="#dbe9f4" stroke="black" d="M698,-597C698,-597 608.5,-597 608.5,-597 602.5,-597 596.5,-591 596.5,-585 596.5,-585 596.5,-573 596.5,-573 596.5,-567 602.5,-561 608.5,-561 608.5,-561 698,-561 698,-561 704,-561 710,-567 710,-573 710,-573 710,-585 710,-585 710,-591 704,-597 698,-597"/>
<text xml:space="preserve" text-anchor="middle" x="653.25" y="-574.55" font-family="Helvetica,sans-Serif" font-size="11.00">vizzpy.parser.project</text>
</a>
</g>
</g>
<!-- vizzpy.cli&#45;&gt;vizzpy.parser.project -->
<g id="edge7" class="edge">
<title>vizzpy.cli&#45;&gt;vizzpy.parser.project</title>
<path fill="none" stroke="black" d="M185.16,-515.26C206.12,-523.23 235.58,-533.61 262.25,-540 373.41,-566.64 506.62,-575.11 585.07,-577.79"/>
<polygon fill="black" stroke="black" points="584.62,-581.28 594.73,-578.09 584.84,-574.28 584.62,-581.28"/>
</g>
<!-- argparse -->
<g id="node8" class="node">
<title>argparse</title>
<g id="a_node8"><a xlink:title="argparse">
<path fill="#f0f0f0" stroke="#aaaaaa" stroke-dasharray="5,2" d="M319.5,-450C319.5,-450 284.75,-450 284.75,-450 278.75,-450 272.75,-444 272.75,-438 272.75,-438 272.75,-426 272.75,-426 272.75,-420 278.75,-414 284.75,-414 284.75,-414 319.5,-414 319.5,-414 325.5,-414 331.5,-420 331.5,-426 331.5,-426 331.5,-438 331.5,-438 331.5,-444 325.5,-450 319.5,-450"/>
<text xml:space="preserve" text-anchor="middle" x="302.12" y="-427.55" font-family="Helvetica,sans-Serif" font-size="11.00" fill="#888888">argparse</text>
</a>
</g>
</g>
<!-- vizzpy.cli&#45;&gt;argparse -->
<g id="edge2" class="edge">
<title>vizzpy.cli&#45;&gt;argparse</title>
<path fill="none" stroke="black" d="M185.47,-489.78C207.48,-478.78 238.18,-463.44 262.42,-451.33"/>
<polygon fill="black" stroke="black" points="263.97,-454.47 271.36,-446.87 260.85,-448.21 263.97,-454.47"/>
</g>
<!-- collections -->
<g id="node10" class="node">
<title>collections</title>
<g id="a_node10"><a xlink:title="collections">
<path fill="#f0f0f0" stroke="#aaaaaa" stroke-dasharray="5,2" d="M674,-211C674,-211 632.5,-211 632.5,-211 626.5,-211 620.5,-205 620.5,-199 620.5,-199 620.5,-187 620.5,-187 620.5,-181 626.5,-175 632.5,-175 632.5,-175 674,-175 674,-175 680,-175 686,-181 686,-187 686,-187 686,-199 686,-199 686,-205 680,-211 674,-211"/>
<text xml:space="preserve" text-anchor="middle" x="653.25" y="-188.55" font-family="Helvetica,sans-Serif" font-size="11.00" fill="#888888">collections</text>
</a>
</g>
</g>
<!-- vizzpy.cli&#45;&gt;collections -->
<g id="edge3" class="edge">
<title>vizzpy.cli&#45;&gt;collections</title>
<path fill="none" stroke="black" d="M163.72,-485.57C177.8,-448.72 213.18,-364.53 262.25,-307 313.3,-247.14 329.05,-226.13 403.25,-200 471.93,-175.81 557.99,-180.41 608.85,-186.4"/>
<polygon fill="black" stroke="black" points="608.21,-189.84 618.57,-187.62 609.08,-182.9 608.21,-189.84"/>
</g>
<!-- pathlib -->
<g id="node16" class="node">
<title>pathlib</title>
<g id="a_node16"><a xlink:title="pathlib">
<path fill="#f0f0f0" stroke="#aaaaaa" stroke-dasharray="5,2" d="M484.25,-254C484.25,-254 454.25,-254 454.25,-254 448.25,-254 442.25,-248 442.25,-242 442.25,-242 442.25,-230 442.25,-230 442.25,-224 448.25,-218 454.25,-218 454.25,-218 484.25,-218 484.25,-218 490.25,-218 496.25,-224 496.25,-230 496.25,-230 496.25,-242 496.25,-242 496.25,-248 490.25,-254 484.25,-254"/>
<text xml:space="preserve" text-anchor="middle" x="469.25" y="-231.55" font-family="Helvetica,sans-Serif" font-size="11.00" fill="#888888">pathlib</text>
</a>
</g>
</g>
<!-- vizzpy.cli&#45;&gt;pathlib -->
<g id="edge4" class="edge">
<title>vizzpy.cli&#45;&gt;pathlib</title>
<path fill="none" stroke="black" d="M171.85,-485.63C191.5,-461.73 227.71,-419.16 262.25,-386.25 320.65,-330.61 336.38,-317.1 403.25,-272 412.28,-265.91 422.43,-259.92 431.97,-254.62"/>
<polygon fill="black" stroke="black" points="433.56,-257.75 440.68,-249.9 430.22,-251.59 433.56,-257.75"/>
<text xml:space="preserve" text-anchor="middle" x="302.12" y="-387.45" font-family="Helvetica,sans-Serif" font-size="9.00">7</text>
</g>
<!-- sys -->
<g id="node18" class="node">
<title>sys</title>
<g id="a_node18"><a xlink:title="sys">
<path fill="#f0f0f0" stroke="#aaaaaa" stroke-dasharray="5,2" d="M317.12,-108C317.12,-108 287.12,-108 287.12,-108 281.12,-108 275.12,-102 275.12,-96 275.12,-96 275.12,-84 275.12,-84 275.12,-78 281.12,-72 287.12,-72 287.12,-72 317.12,-72 317.12,-72 323.12,-72 329.12,-78 329.12,-84 329.12,-84 329.12,-96 329.12,-96 329.12,-102 323.12,-108 317.12,-108"/>
<text xml:space="preserve" text-anchor="middle" x="302.12" y="-85.55" font-family="Helvetica,sans-Serif" font-size="11.00" fill="#888888">sys</text>
</a>
</g>
</g>
<!-- vizzpy.cli&#45;&gt;sys -->
<g id="edge5" class="edge">
<title>vizzpy.cli&#45;&gt;sys</title>
<path fill="none" stroke="black" d="M157.84,-485.7C161.26,-418 176.22,-182.72 221,-125.25 231.52,-111.74 248.3,-103.3 263.79,-98.08"/>
<polygon fill="black" stroke="black" points="264.7,-101.46 273.28,-95.25 262.7,-94.75 264.7,-101.46"/>
<text xml:space="preserve" text-anchor="middle" x="223.62" y="-126.45" font-family="Helvetica,sans-Serif" font-size="9.00">5</text>
</g>
<!-- uvicorn -->
<g id="node21" class="node">
<title>uvicorn</title>
<g id="a_node21"><a xlink:title="uvicorn">
<path fill="#f0f0f0" stroke="#aaaaaa" stroke-dasharray="5,2" d="M317.12,-36C317.12,-36 287.12,-36 287.12,-36 281.12,-36 275.12,-30 275.12,-24 275.12,-24 275.12,-12 275.12,-12 275.12,-6 281.12,0 287.12,0 287.12,0 317.12,0 317.12,0 323.12,0 329.12,-6 329.12,-12 329.12,-12 329.12,-24 329.12,-24 329.12,-30 323.12,-36 317.12,-36"/>
<text xml:space="preserve" text-anchor="middle" x="302.12" y="-13.55" font-family="Helvetica,sans-Serif" font-size="11.00" fill="#888888">uvicorn</text>
</a>
</g>
</g>
<!-- vizzpy.cli&#45;&gt;uvicorn -->
<g id="edge6" class="edge">
<title>vizzpy.cli&#45;&gt;uvicorn</title>
<path fill="none" stroke="black" d="M157.03,-485.56C157.74,-427.89 164.62,-246.65 221,-111 231.76,-85.12 252.6,-61.3 270.33,-44.24"/>
<polygon fill="black" stroke="black" points="272.68,-46.83 277.62,-37.46 267.91,-41.71 272.68,-46.83"/>
</g>
<!-- vizzpy.graph -->
<g id="node2" class="node">
<title>vizzpy.graph</title>
<g id="a_node2"><a xlink:title="vizzpy.graph">
<path fill="#dbe9f4" stroke="black" d="M495.25,-542C495.25,-542 443.25,-542 443.25,-542 437.25,-542 431.25,-536 431.25,-530 431.25,-530 431.25,-518 431.25,-518 431.25,-512 437.25,-506 443.25,-506 443.25,-506 495.25,-506 495.25,-506 501.25,-506 507.25,-512 507.25,-518 507.25,-518 507.25,-530 507.25,-530 507.25,-536 501.25,-542 495.25,-542"/>
<text xml:space="preserve" text-anchor="middle" x="469.25" y="-519.55" font-family="Helvetica,sans-Serif" font-size="11.00">vizzpy.graph</text>
</a>
</g>
</g>
<!-- vizzpy.graph&#45;&gt;vizzpy.parser.project -->
<g id="edge11" class="edge">
<title>vizzpy.graph&#45;&gt;vizzpy.parser.project</title>
<path fill="none" stroke="black" d="M507.52,-535.26C529.81,-542 558.81,-550.76 584.99,-558.67"/>
<polygon fill="black" stroke="black" points="583.98,-562.02 594.56,-561.57 586,-555.32 583.98,-562.02"/>
</g>
<!-- vizzpy.graph&#45;&gt;collections -->
<g id="edge10" class="edge">
<title>vizzpy.graph&#45;&gt;collections</title>
<path fill="none" stroke="black" d="M507.46,-509.03C517.5,-503.6 527.67,-496.62 535.25,-488 605.9,-407.66 636.69,-279.46 647.44,-222.24"/>
<polygon fill="black" stroke="black" points="650.84,-223.1 649.17,-212.64 643.95,-221.86 650.84,-223.1"/>
<text xml:space="preserve" text-anchor="middle" x="557.88" y="-462.32" font-family="Helvetica,sans-Serif" font-size="9.00">2</text>
</g>
<!-- vizzpy.render&#45;&gt;vizzpy.graph -->
<g id="edge20" class="edge">
<title>vizzpy.render&#45;&gt;vizzpy.graph</title>
<path fill="none" stroke="black" d="M336.94,-595.57C362.32,-581.74 397.27,-562.69 424.73,-547.72"/>
<polygon fill="black" stroke="black" points="426.05,-550.99 433.15,-543.13 422.7,-544.84 426.05,-550.99"/>
<text xml:space="preserve" text-anchor="middle" x="380.62" y="-572.9" font-family="Helvetica,sans-Serif" font-size="9.00">4</text>
</g>
<!-- graphviz -->
<g id="node12" class="node">
<title>graphviz</title>
<g id="a_node12"><a xlink:title="graphviz">
<path fill="#f0f0f0" stroke="#aaaaaa" stroke-dasharray="5,2" d="M485.5,-775C485.5,-775 453,-775 453,-775 447,-775 441,-769 441,-763 441,-763 441,-751 441,-751 441,-745 447,-739 453,-739 453,-739 485.5,-739 485.5,-739 491.5,-739 497.5,-745 497.5,-751 497.5,-751 497.5,-763 497.5,-763 497.5,-769 491.5,-775 485.5,-775"/>
<text xml:space="preserve" text-anchor="middle" x="469.25" y="-752.55" font-family="Helvetica,sans-Serif" font-size="11.00" fill="#888888">graphviz</text>
</a>
</g>
</g>
<!-- vizzpy.render&#45;&gt;graphviz -->
<g id="edge19" class="edge">
<title>vizzpy.render&#45;&gt;graphviz</title>
<path fill="none" stroke="black" d="M315.86,-632.21C329.78,-651.38 353.42,-681.79 378,-704 388.04,-713.07 391.71,-713.94 403.25,-721 412.04,-726.38 421.68,-731.91 430.78,-736.97"/>
<polygon fill="black" stroke="black" points="428.97,-739.97 439.42,-741.73 432.35,-733.84 428.97,-739.97"/>
</g>
<!-- vizzpy.server&#45;&gt;vizzpy.graph -->
<g id="edge27" class="edge">
<title>vizzpy.server&#45;&gt;vizzpy.graph</title>
<path fill="none" stroke="black" d="M341.42,-508.64C364.7,-511.46 394.64,-515.08 419.58,-518.11"/>
<polygon fill="black" stroke="black" points="419.16,-521.58 429.51,-519.31 420,-514.63 419.16,-521.58"/>
<text xml:space="preserve" text-anchor="middle" x="380.62" y="-514.6" font-family="Helvetica,sans-Serif" font-size="9.00">2</text>
</g>
<!-- fastapi -->
<g id="node11" class="node">
<title>fastapi</title>
<g id="a_node11"><a xlink:title="fastapi">
<path fill="#f0f0f0" stroke="#aaaaaa" stroke-dasharray="5,2" d="M484.25,-703C484.25,-703 454.25,-703 454.25,-703 448.25,-703 442.25,-697 442.25,-691 442.25,-691 442.25,-679 442.25,-679 442.25,-673 448.25,-667 454.25,-667 454.25,-667 484.25,-667 484.25,-667 490.25,-667 496.25,-673 496.25,-679 496.25,-679 496.25,-691 496.25,-691 496.25,-697 490.25,-703 484.25,-703"/>
<text xml:space="preserve" text-anchor="middle" x="469.25" y="-680.55" font-family="Helvetica,sans-Serif" font-size="11.00" fill="#888888">fastapi</text>
</a>
</g>
</g>
<!-- vizzpy.server&#45;&gt;fastapi -->
<g id="edge21" class="edge">
<title>vizzpy.server&#45;&gt;fastapi</title>
<path fill="none" stroke="black" d="M312.61,-522.27C332.33,-559.67 378.02,-643.11 403.25,-663 411.34,-669.38 421.38,-673.96 431.13,-677.22"/>
<polygon fill="black" stroke="black" points="429.86,-680.5 440.44,-679.96 431.83,-673.78 429.86,-680.5"/>
<text xml:space="preserve" text-anchor="middle" x="380.62" y="-641.21" font-family="Helvetica,sans-Serif" font-size="9.00">6</text>
</g>
<!-- logging -->
<g id="node14" class="node">
<title>logging</title>
<g id="a_node14"><a xlink:title="logging">
<path fill="#f0f0f0" stroke="#aaaaaa" stroke-dasharray="5,2" d="M858.62,-842C858.62,-842 828.62,-842 828.62,-842 822.62,-842 816.62,-836 816.62,-830 816.62,-830 816.62,-818 816.62,-818 816.62,-812 822.62,-806 828.62,-806 828.62,-806 858.62,-806 858.62,-806 864.62,-806 870.62,-812 870.62,-818 870.62,-818 870.62,-830 870.62,-830 870.62,-836 864.62,-842 858.62,-842"/>
<text xml:space="preserve" text-anchor="middle" x="843.62" y="-819.55" font-family="Helvetica,sans-Serif" font-size="11.00" fill="#888888">logging</text>
</a>
</g>
</g>
<!-- vizzpy.server&#45;&gt;logging -->
<g id="edge23" class="edge">
<title>vizzpy.server&#45;&gt;logging</title>
<path fill="none" stroke="black" d="M314.13,-522.35C322.59,-537.03 334.13,-558.33 342,-578 378.91,-670.25 326.11,-730.38 403.25,-793 521.64,-889.1 722.18,-854.3 805.06,-834.21"/>
<polygon fill="black" stroke="black" points="805.86,-837.62 814.71,-831.8 804.16,-830.83 805.86,-837.62"/>
</g>
<!-- vizzpy.server&#45;&gt;pathlib -->
<g id="edge24" class="edge">
<title>vizzpy.server&#45;&gt;pathlib</title>
<path fill="none" stroke="black" d="M327.01,-485.55C332.54,-480.36 337.97,-474.38 342,-468 390.74,-390.84 345.58,-342.74 403.25,-272 410.77,-262.78 421.31,-255.53 431.72,-250.02"/>
<polygon fill="black" stroke="black" points="433.11,-253.24 440.6,-245.75 430.07,-246.93 433.11,-253.24"/>
</g>
<!-- tarfile -->
<g id="node19" class="node">
<title>tarfile</title>
<g id="a_node19"><a xlink:title="tarfile">
<path fill="#f0f0f0" stroke="#aaaaaa" stroke-dasharray="5,2" d="M484.25,-470C484.25,-470 454.25,-470 454.25,-470 448.25,-470 442.25,-464 442.25,-458 442.25,-458 442.25,-446 442.25,-446 442.25,-440 448.25,-434 454.25,-434 454.25,-434 484.25,-434 484.25,-434 490.25,-434 496.25,-440 496.25,-446 496.25,-446 496.25,-458 496.25,-458 496.25,-464 490.25,-470 484.25,-470"/>
<text xml:space="preserve" text-anchor="middle" x="469.25" y="-447.55" font-family="Helvetica,sans-Serif" font-size="11.00" fill="#888888">tarfile</text>
</a>
</g>
</g>
<!-- vizzpy.server&#45;&gt;tarfile -->
<g id="edge25" class="edge">
<title>vizzpy.server&#45;&gt;tarfile</title>
<path fill="none" stroke="black" d="M341.42,-491.94C368.43,-483.43 404.42,-472.1 431.15,-463.68"/>
<polygon fill="black" stroke="black" points="432.06,-467.07 440.55,-460.72 429.96,-460.39 432.06,-467.07"/>
</g>
<!-- tempfile -->
<g id="node20" class="node">
<title>tempfile</title>
<g id="a_node20"><a xlink:title="tempfile">
<path fill="#f0f0f0" stroke="#aaaaaa" stroke-dasharray="5,2" d="M484.25,-398C484.25,-398 454.25,-398 454.25,-398 448.25,-398 442.25,-392 442.25,-386 442.25,-386 442.25,-374 442.25,-374 442.25,-368 448.25,-362 454.25,-362 454.25,-362 484.25,-362 484.25,-362 490.25,-362 496.25,-368 496.25,-374 496.25,-374 496.25,-386 496.25,-386 496.25,-392 490.25,-398 484.25,-398"/>
<text xml:space="preserve" text-anchor="middle" x="469.25" y="-375.55" font-family="Helvetica,sans-Serif" font-size="11.00" fill="#888888">tempfile</text>
</a>
</g>
</g>
<!-- vizzpy.server&#45;&gt;tempfile -->
<g id="edge26" class="edge">
<title>vizzpy.server&#45;&gt;tempfile</title>
<path fill="none" stroke="black" d="M322.71,-485.88C346.91,-463.66 386.88,-427.52 403.25,-416 412.16,-409.73 422.26,-403.68 431.81,-398.38"/>
<polygon fill="black" stroke="black" points="433.38,-401.51 440.52,-393.68 430.06,-395.35 433.38,-401.51"/>
</g>
<!-- vizzx -->
<g id="node22" class="node">
<title>vizzx</title>
<g id="a_node22"><a xlink:title="vizzx">
<path fill="#f0f0f0" stroke="#aaaaaa" stroke-dasharray="5,2" d="M484.25,-326C484.25,-326 454.25,-326 454.25,-326 448.25,-326 442.25,-320 442.25,-314 442.25,-314 442.25,-302 442.25,-302 442.25,-296 448.25,-290 454.25,-290 454.25,-290 484.25,-290 484.25,-290 490.25,-290 496.25,-296 496.25,-302 496.25,-302 496.25,-314 496.25,-314 496.25,-320 490.25,-326 484.25,-326"/>
<text xml:space="preserve" text-anchor="middle" x="469.25" y="-303.55" font-family="Helvetica,sans-Serif" font-size="11.00" fill="#888888">vizzx</text>
</a>
</g>
</g>
<!-- vizzpy.server&#45;&gt;vizzx -->
<g id="edge28" class="edge">
<title>vizzpy.server&#45;&gt;vizzx</title>
<path fill="none" stroke="black" d="M325.53,-485.84C331.33,-480.48 337.27,-474.34 342,-468 378.77,-418.74 360.82,-388.47 403.25,-344 411.18,-335.69 421.46,-328.8 431.5,-323.36"/>
<polygon fill="black" stroke="black" points="433.04,-326.5 440.4,-318.88 429.89,-320.24 433.04,-326.5"/>
<text xml:space="preserve" text-anchor="middle" x="380.62" y="-382.29" font-family="Helvetica,sans-Serif" font-size="9.00">2</text>
</g>
<!-- zipfile -->
<g id="node23" class="node">
<title>zipfile</title>
<g id="a_node23"><a xlink:title="zipfile">
<path fill="#f0f0f0" stroke="#aaaaaa" stroke-dasharray="5,2" d="M484.25,-1019C484.25,-1019 454.25,-1019 454.25,-1019 448.25,-1019 442.25,-1013 442.25,-1007 442.25,-1007 442.25,-995 442.25,-995 442.25,-989 448.25,-983 454.25,-983 454.25,-983 484.25,-983 484.25,-983 490.25,-983 496.25,-989 496.25,-995 496.25,-995 496.25,-1007 496.25,-1007 496.25,-1013 490.25,-1019 484.25,-1019"/>
<text xml:space="preserve" text-anchor="middle" x="469.25" y="-996.55" font-family="Helvetica,sans-Serif" font-size="11.00" fill="#888888">zipfile</text>
</a>
</g>
</g>
<!-- vizzpy.server&#45;&gt;zipfile -->
<g id="edge29" class="edge">
<title>vizzpy.server&#45;&gt;zipfile</title>
<path fill="none" stroke="black" d="M315.2,-522.34C324.12,-536.83 335.77,-557.9 342,-578 382.31,-707.95 348.13,-749.26 378,-882 385.72,-916.31 381.96,-929.01 403.25,-957 411.02,-967.21 421.87,-975.87 432.48,-982.73"/>
<polygon fill="black" stroke="black" points="430.4,-985.56 440.77,-987.73 434.02,-979.57 430.4,-985.56"/>
</g>
<!-- fastapi.responses -->
<g id="node24" class="node">
<title>fastapi.responses</title>
<g id="a_node24"><a xlink:title="fastapi.responses">
<path fill="#f0f0f0" stroke="#aaaaaa" stroke-dasharray="5,2" d="M507.25,-921C507.25,-921 431.25,-921 431.25,-921 425.25,-921 419.25,-915 419.25,-909 419.25,-909 419.25,-897 419.25,-897 419.25,-891 425.25,-885 431.25,-885 431.25,-885 507.25,-885 507.25,-885 513.25,-885 519.25,-891 519.25,-897 519.25,-897 519.25,-909 519.25,-909 519.25,-915 513.25,-921 507.25,-921"/>
<text xml:space="preserve" text-anchor="middle" x="469.25" y="-898.55" font-family="Helvetica,sans-Serif" font-size="11.00" fill="#888888">fastapi.responses</text>
</a>
</g>
</g>
<!-- vizzpy.server&#45;&gt;fastapi.responses -->
<g id="edge22" class="edge">
<title>vizzpy.server&#45;&gt;fastapi.responses</title>
<path fill="none" stroke="black" d="M315.14,-522.36C324.03,-536.86 335.66,-557.94 342,-578 379.67,-697.22 305.98,-754.8 378,-857 385.76,-868.01 396.95,-876.54 408.82,-883.1"/>
<polygon fill="black" stroke="black" points="407.04,-886.12 417.54,-887.48 410.18,-879.87 407.04,-886.12"/>
<text xml:space="preserve" text-anchor="middle" x="380.62" y="-864.53" font-family="Helvetica,sans-Serif" font-size="9.00">2</text>
</g>
<!-- vizzpy.parser.walker -->
<g id="node7" class="node">
<title>vizzpy.parser.walker</title>
<g id="a_node7"><a xlink:title="vizzpy.parser.walker">
<path fill="#dbe9f4" stroke="black" d="M888,-597C888,-597 799.25,-597 799.25,-597 793.25,-597 787.25,-591 787.25,-585 787.25,-585 787.25,-573 787.25,-573 787.25,-567 793.25,-561 799.25,-561 799.25,-561 888,-561 888,-561 894,-561 900,-567 900,-573 900,-573 900,-585 900,-585 900,-591 894,-597 888,-597"/>
<text xml:space="preserve" text-anchor="middle" x="843.62" y="-574.55" font-family="Helvetica,sans-Serif" font-size="11.00">vizzpy.parser.walker</text>
</a>
</g>
</g>
<!-- vizzpy.parser.project&#45;&gt;vizzpy.parser.walker -->
<g id="edge16" class="edge">
<title>vizzpy.parser.project&#45;&gt;vizzpy.parser.walker</title>
<path fill="none" stroke="black" d="M710.26,-579C730.76,-579 754.16,-579 775.54,-579"/>
<polygon fill="black" stroke="black" points="775.32,-582.5 785.32,-579 775.32,-575.5 775.32,-582.5"/>
<text xml:space="preserve" text-anchor="middle" x="748.62" y="-580.2" font-family="Helvetica,sans-Serif" font-size="9.00">3</text>
</g>
<!-- ast -->
<g id="node9" class="node">
<title>ast</title>
<g id="a_node9"><a xlink:title="ast">
<path fill="#f0f0f0" stroke="#aaaaaa" stroke-dasharray="5,2" d="M1047.12,-703C1047.12,-703 1017.12,-703 1017.12,-703 1011.12,-703 1005.12,-697 1005.12,-691 1005.12,-691 1005.12,-679 1005.12,-679 1005.12,-673 1011.12,-667 1017.12,-667 1017.12,-667 1047.12,-667 1047.12,-667 1053.12,-667 1059.12,-673 1059.12,-679 1059.12,-679 1059.12,-691 1059.12,-691 1059.12,-697 1053.12,-703 1047.12,-703"/>
<text xml:space="preserve" text-anchor="middle" x="1032.12" y="-680.55" font-family="Helvetica,sans-Serif" font-size="11.00" fill="#888888">ast</text>
</a>
</g>
</g>
<!-- vizzpy.parser.project&#45;&gt;ast -->
<g id="edge12" class="edge">
<title>vizzpy.parser.project&#45;&gt;ast</title>
<path fill="none" stroke="black" d="M710.27,-594.75C788.38,-616.73 927.89,-655.96 994.18,-674.61"/>
<polygon fill="black" stroke="black" points="992.89,-677.88 1003.47,-677.22 994.79,-671.14 992.89,-677.88"/>
</g>
<!-- json -->
<g id="node13" class="node">
<title>json</title>
<g id="a_node13"><a xlink:title="json">
<path fill="#f0f0f0" stroke="#aaaaaa" stroke-dasharray="5,2" d="M858.62,-470C858.62,-470 828.62,-470 828.62,-470 822.62,-470 816.62,-464 816.62,-458 816.62,-458 816.62,-446 816.62,-446 816.62,-440 822.62,-434 828.62,-434 828.62,-434 858.62,-434 858.62,-434 864.62,-434 870.62,-440 870.62,-446 870.62,-446 870.62,-458 870.62,-458 870.62,-464 864.62,-470 858.62,-470"/>
<text xml:space="preserve" text-anchor="middle" x="843.62" y="-447.55" font-family="Helvetica,sans-Serif" font-size="11.00" fill="#888888">json</text>
</a>
</g>
</g>
<!-- vizzpy.parser.project&#45;&gt;json -->
<g id="edge13" class="edge">
<title>vizzpy.parser.project&#45;&gt;json</title>
<path fill="none" stroke="black" d="M681.64,-560.53C714.8,-538.18 770.72,-500.48 807.15,-475.92"/>
<polygon fill="black" stroke="black" points="808.83,-479.01 815.16,-470.52 804.91,-473.2 808.83,-479.01"/>
</g>
<!-- vizzpy.parser.project&#45;&gt;logging -->
<g id="edge14" class="edge">
<title>vizzpy.parser.project&#45;&gt;logging</title>
<path fill="none" stroke="black" d="M662.92,-597.3C681.5,-635.14 728.33,-723.24 787.25,-781 793.54,-787.17 800.71,-793.29 807.75,-798.9"/>
<polygon fill="black" stroke="black" points="805.27,-801.41 815.33,-804.76 809.56,-795.87 805.27,-801.41"/>
</g>
<!-- re -->
<g id="node17" class="node">
<title>re</title>
<g id="a_node17"><a xlink:title="re">
<path fill="#f0f0f0" stroke="#aaaaaa" stroke-dasharray="5,2" d="M858.62,-763C858.62,-763 828.62,-763 828.62,-763 822.62,-763 816.62,-757 816.62,-751 816.62,-751 816.62,-739 816.62,-739 816.62,-733 822.62,-727 828.62,-727 828.62,-727 858.62,-727 858.62,-727 864.62,-727 870.62,-733 870.62,-739 870.62,-739 870.62,-751 870.62,-751 870.62,-757 864.62,-763 858.62,-763"/>
<text xml:space="preserve" text-anchor="middle" x="843.62" y="-740.55" font-family="Helvetica,sans-Serif" font-size="11.00" fill="#888888">re</text>
</a>
</g>
</g>
<!-- vizzpy.parser.project&#45;&gt;re -->
<g id="edge15" class="edge">
<title>vizzpy.parser.project&#45;&gt;re</title>
<path fill="none" stroke="black" d="M664.19,-597.21C679.05,-623.02 709.27,-670.37 746,-700 763.7,-714.28 786.67,-725.22 805.77,-732.73"/>
<polygon fill="black" stroke="black" points="804.5,-735.99 815.09,-736.23 806.96,-729.44 804.5,-735.99"/>
</g>
<!-- vizzpy.parser.scope -->
<g id="node6" class="node">
<title>vizzpy.parser.scope</title>
<g id="a_node6"><a xlink:title="vizzpy.parser.scope">
<path fill="#dbe9f4" stroke="black" d="M1075,-597C1075,-597 989.25,-597 989.25,-597 983.25,-597 977.25,-591 977.25,-585 977.25,-585 977.25,-573 977.25,-573 977.25,-567 983.25,-561 989.25,-561 989.25,-561 1075,-561 1075,-561 1081,-561 1087,-567 1087,-573 1087,-573 1087,-585 1087,-585 1087,-591 1081,-597 1075,-597"/>
<text xml:space="preserve" text-anchor="middle" x="1032.12" y="-574.55" font-family="Helvetica,sans-Serif" font-size="11.00">vizzpy.parser.scope</text>
</a>
</g>
</g>
<!-- vizzpy.parser.walker&#45;&gt;vizzpy.parser.scope -->
<g id="edge18" class="edge">
<title>vizzpy.parser.walker&#45;&gt;vizzpy.parser.scope</title>
<path fill="none" stroke="black" d="M900.33,-579C920.89,-579 944.38,-579 965.72,-579"/>
<polygon fill="black" stroke="black" points="965.48,-582.5 975.48,-579 965.48,-575.5 965.48,-582.5"/>
<text xml:space="preserve" text-anchor="middle" x="938.62" y="-580.2" font-family="Helvetica,sans-Serif" font-size="9.00">3</text>
</g>
<!-- vizzpy.parser.walker&#45;&gt;ast -->
<g id="edge17" class="edge">
<title>vizzpy.parser.walker&#45;&gt;ast</title>
<path fill="none" stroke="black" d="M877.11,-597.46C910.07,-616.2 960.97,-645.13 995.14,-664.55"/>
<polygon fill="black" stroke="black" points="992.99,-667.35 1003.42,-669.25 996.45,-661.27 992.99,-667.35"/>
<text xml:space="preserve" text-anchor="middle" x="938.62" y="-633.2" font-family="Helvetica,sans-Serif" font-size="9.00">2</text>
</g>
<!-- main -->
<g id="node15" class="node">
<title>main</title>
<g id="a_node15"><a xlink:title="main">
<path fill="#dbe9f4" stroke="black" d="M42,-522C42,-522 12,-522 12,-522 6,-522 0,-516 0,-510 0,-510 0,-498 0,-498 0,-492 6,-486 12,-486 12,-486 42,-486 42,-486 48,-486 54,-492 54,-498 54,-498 54,-510 54,-510 54,-516 48,-522 42,-522"/>
<text xml:space="preserve" text-anchor="middle" x="27" y="-499.55" font-family="Helvetica,sans-Serif" font-size="11.00">main</text>
</a>
</g>
</g>
<!-- main&#45;&gt;vizzpy.cli -->
<g id="edge1" class="edge">
<title>main&#45;&gt;vizzpy.cli</title>
<path fill="none" stroke="black" d="M54.31,-504C71.85,-504 95.21,-504 115.03,-504"/>
<polygon fill="black" stroke="black" points="115,-507.5 125,-504 115,-500.5 115,-507.5"/>
</g>
</g>
</svg>
